<?xml version="1.0" encoding="utf-8"?>
<!-- Generator: Adobe Illustrator 21.0.0, SVG Export Plug-In . SVG Version: 6.00 Build 0)  -->
<svg version="1.1" id="Warstwa_1" xmlns="http://www.w3.org/2000/svg" xmlns:xlink="http://www.w3.org/1999/xlink" x="0px" y="0px"
	 viewBox="0 0 838.2 289" style="enable-background:new 0 0 838.2 289;" xml:space="preserve">
<style type="text/css">
	.st0{fill:#E2963A;}
</style>
<g id="Warstwa_1_1_">
	<g id="Warstwa_3">
	</g>
</g>
<g id="Warstwa_2">
	<path class="st0" d="M197.6,68.4c-14.7-44.4-87.3-44.1-103.5,0C14.5,52.1-9.3,167.9,70.3,184.3c0,0,0,53.5,0,61.1
		s73.8,8.4,75.5,8.4c1.8,0,75.5-0.8,75.5-8.4s0-60.7,0-60.7C301.7,168.3,277.9,52,197.6,68.4z M146.7,94.7c19.2,0,36,10,45.4,25.1
		l-1.4,2.4l-0.1,0l-5.3,9.1c-6.3-14.9-21.2-25.4-38.6-25.4h-32.9C122.8,98.9,134.3,94.7,146.7,94.7z M78.7,108.5h68
		c10.8,0,20.6,4.3,27.7,11.3H98.5c-2.4,4.1-4.2,8.5-5.5,13.1L78.7,108.5z M93.5,147.3c0-9.1,2.3-17.6,6.4-25.1h2.9h10.7
		c-5.4,7-8.6,15.6-8.6,25.1c0,7.8,2.2,15,5.9,21.2l16.1,27.6C107.4,188.5,93.5,169.5,93.5,147.3z M146.7,225l-34.4-58.9
		c-3.1-5.6-4.9-12-4.9-18.8c0-3.4,0.4-6.8,1.3-9.9l38,65c4.9,0,9.7-0.6,14.2-1.8L146.7,225z M148.2,199.9l-1.4-2.5l-5.3-9.1
		c1.7,0.2,3.5,0.3,5.3,0.3c15.7,0,29.4-8.6,36.6-21.3l16.1-27.6c0.4,2.5,0.5,5,0.5,7.6C199.9,175.9,176.9,199.2,148.2,199.9z
		 M180.4,167.3c-5.1,8.5-13.5,14.9-23.4,17.5l38-65h0c-2.4-4.1-5.4-7.9-8.8-11.3h28.5L180.4,167.3z"/>
</g>
<g>
	<path class="st0" d="M335.7,99.5l-10.1,8.9c-3.5-4.9-7.1-7.4-10.8-7.4c-1.8,0-3.2,0.5-4.4,1.4c-1.1,1-1.7,2-1.7,3.2
		c0,1.2,0.4,2.3,1.2,3.4c1.1,1.4,4.4,4.5,10,9.2c5.2,4.3,8.3,7.1,9.4,8.2c2.8,2.8,4.7,5.4,5.9,8c1.1,2.5,1.7,5.3,1.7,8.3
		c0,5.9-2,10.7-6.1,14.5c-4,3.8-9.3,5.7-15.8,5.7c-5.1,0-9.5-1.2-13.3-3.7c-3.8-2.5-7-6.4-9.7-11.7l11.4-6.9
		c3.4,6.3,7.4,9.5,11.9,9.5c2.3,0,4.3-0.7,5.9-2c1.6-1.4,2.4-2.9,2.4-4.7c0-1.6-0.6-3.2-1.8-4.8c-1.2-1.6-3.8-4.1-7.9-7.4
		c-7.8-6.3-12.8-11.2-15.1-14.7c-2.3-3.4-3.4-6.9-3.4-10.3c0-4.9,1.9-9.2,5.7-12.7c3.8-3.5,8.4-5.3,14-5.3c3.6,0,7,0.8,10.2,2.5
		C328.4,92.1,331.9,95.1,335.7,99.5z"/>
	<path class="st0" d="M383.6,88c10.1,0,18.8,3.7,26,11c7.3,7.3,10.9,16.2,10.9,26.7c0,10.4-3.6,19.2-10.8,26.4
		c-7.2,7.2-15.9,10.8-26.1,10.8c-10.7,0-19.6-3.7-26.7-11.1c-7.1-7.4-10.6-16.2-10.6-26.4c0-6.8,1.6-13.1,4.9-18.8
		c3.3-5.7,7.8-10.3,13.6-13.6C370.7,89.7,376.9,88,383.6,88z M383.4,101.3c-6.6,0-12.2,2.3-16.7,6.9c-4.5,4.6-6.7,10.4-6.7,17.5
		c0,7.9,2.8,14.1,8.5,18.7c4.4,3.6,9.4,5.4,15.1,5.4c6.4,0,11.9-2.3,16.5-7c4.5-4.7,6.8-10.4,6.8-17.2c0-6.8-2.3-12.5-6.8-17.2
		C395.5,103.6,389.9,101.3,383.4,101.3z"/>
	<path class="st0" d="M432.8,89.8h13.6v46.1c0,4,0.3,6.8,1,8.4s1.8,3,3.4,3.9c1.6,1,3.5,1.5,5.8,1.5c2.4,0,4.5-0.5,6.2-1.6
		c1.7-1.1,2.9-2.5,3.6-4.2c0.7-1.7,1-4.9,1-9.7V89.8h13.6v42.5c0,7.2-0.4,12.2-1.2,14.9c-0.8,2.8-2.4,5.5-4.6,8
		c-2.3,2.6-4.9,4.5-7.9,5.7s-6.4,1.9-10.4,1.9c-5.2,0-9.7-1.2-13.5-3.6c-3.8-2.4-6.6-5.4-8.2-8.9c-1.6-3.6-2.5-9.6-2.5-18.1V89.8z"
		/>
	<path class="st0" d="M534.3,99.5l-10.1,8.9c-3.5-4.9-7.1-7.4-10.8-7.4c-1.8,0-3.2,0.5-4.4,1.4c-1.1,1-1.7,2-1.7,3.2
		c0,1.2,0.4,2.3,1.2,3.4c1.1,1.4,4.4,4.5,10,9.2c5.2,4.3,8.3,7.1,9.4,8.2c2.8,2.8,4.7,5.4,5.9,8c1.1,2.5,1.7,5.3,1.7,8.3
		c0,5.9-2,10.7-6.1,14.5c-4,3.8-9.3,5.7-15.8,5.7c-5.1,0-9.5-1.2-13.3-3.7c-3.8-2.5-7-6.4-9.7-11.7l11.4-6.9
		c3.4,6.3,7.4,9.5,11.9,9.5c2.3,0,4.3-0.7,5.9-2c1.6-1.4,2.4-2.9,2.4-4.7c0-1.6-0.6-3.2-1.8-4.8c-1.2-1.6-3.8-4.1-7.9-7.4
		c-7.8-6.3-12.8-11.2-15.1-14.7c-2.3-3.4-3.4-6.9-3.4-10.3c0-4.9,1.9-9.2,5.7-12.7c3.8-3.5,8.4-5.3,14-5.3c3.6,0,7,0.8,10.2,2.5
		C527.1,92.1,530.5,95.1,534.3,99.5z"/>
	<path class="st0" d="M641.9,102.3l-9.5,9.1c-6.5-6.8-13.7-10.2-21.8-10.2c-6.8,0-12.6,2.3-17.2,7c-4.7,4.7-7,10.4-7,17.2
		c0,4.8,1,9,3.1,12.7c2.1,3.7,5,6.6,8.8,8.7s8,3.2,12.6,3.2c3.9,0,7.5-0.7,10.8-2.2c3.3-1.5,6.8-4.1,10.8-8l9.2,9.6
		c-5.3,5.1-10.2,8.7-14.9,10.7c-4.7,2-10,3-16.1,3c-11.1,0-20.2-3.5-27.2-10.5c-7.1-7-10.6-16-10.6-27c0-7.1,1.6-13.4,4.8-19
		s7.8-10,13.8-13.3c6-3.4,12.5-5,19.4-5c5.9,0,11.5,1.2,17,3.7C633.2,94.2,637.9,97.7,641.9,102.3z"/>
	<path class="st0" d="M653.7,89.8h13.8v26.9h23.8V89.8H705v71.3h-13.7v-31.3h-23.8v31.3h-13.8V89.8z"/>
	<path class="st0" d="M721.3,89.8h38.9v13.3h-25.5V116h25.5v13h-25.5v18.8h25.5v13.3h-38.9V89.8z"/>
	<path class="st0" d="M773.1,89.8h35.4V103h-21.9V116h21.9v13h-21.9v32.1h-13.5V89.8z"/>
</g>
<g>
	<path class="st0" d="M303.1,195.6l11.4,24.5h-2.6l-3.9-8.1h-10.6l-3.8,8.1h-2.7l11.6-24.5H303.1z M302.8,200.9l-4.2,8.9h8.4
		L302.8,200.9z"/>
	<path class="st0" d="M317.9,202h2.3v3.3c0.9-1.2,2-2.2,3.1-2.8c1.1-0.6,2.4-0.9,3.7-0.9c1.4,0,2.6,0.3,3.6,1
		c1.1,0.7,1.8,1.6,2.3,2.8c0.5,1.2,0.8,3,0.8,5.5v9.3h-2.3v-8.7c0-2.1-0.1-3.5-0.3-4.2c-0.3-1.2-0.8-2.1-1.6-2.7
		c-0.8-0.6-1.8-0.9-3-0.9c-1.4,0-2.7,0.5-3.8,1.4c-1.1,0.9-1.9,2.1-2.2,3.5c-0.2,0.9-0.3,2.5-0.3,4.9v6.7h-2.3V202z"/>
	<path class="st0" d="M366.3,202v18.1H364V217c-1,1.2-2.1,2.1-3.3,2.7c-1.2,0.6-2.5,0.9-4,0.9c-2.6,0-4.8-0.9-6.6-2.8
		c-1.8-1.9-2.7-4.1-2.7-6.8c0-2.6,0.9-4.8,2.8-6.7s4-2.8,6.6-2.8c1.5,0,2.8,0.3,4,1c1.2,0.6,2.3,1.6,3.2,2.9V202H366.3z M357,203.8
		c-1.3,0-2.5,0.3-3.6,1c-1.1,0.6-2,1.5-2.6,2.7c-0.6,1.2-1,2.4-1,3.7c0,1.3,0.3,2.5,1,3.7c0.7,1.2,1.5,2.1,2.6,2.7
		c1.1,0.6,2.3,1,3.6,1c1.3,0,2.5-0.3,3.6-1s2-1.5,2.6-2.6c0.6-1.1,0.9-2.3,0.9-3.7c0-2.1-0.7-3.9-2.1-5.3
		C360.7,204.5,359,203.8,357,203.8z"/>
	<path class="st0" d="M380.7,204l-1.5,1.6c-1.2-1.2-2.5-1.8-3.7-1.8c-0.8,0-1.4,0.3-1.9,0.8c-0.5,0.5-0.8,1.1-0.8,1.8
		c0,0.6,0.2,1.2,0.7,1.7c0.4,0.5,1.4,1.2,2.8,1.9c1.7,0.9,2.9,1.8,3.5,2.6c0.6,0.8,0.9,1.8,0.9,2.9c0,1.5-0.5,2.8-1.6,3.8
		c-1,1-2.4,1.6-3.9,1.6c-1,0-2-0.2-3-0.7s-1.7-1.1-2.4-1.9l1.5-1.7c1.2,1.3,2.5,2,3.8,2c0.9,0,1.7-0.3,2.4-0.9c0.7-0.6,1-1.3,1-2.1
		c0-0.7-0.2-1.3-0.7-1.8c-0.4-0.5-1.4-1.2-2.9-1.9c-1.6-0.8-2.8-1.7-3.3-2.5s-0.9-1.8-0.9-2.8c0-1.4,0.5-2.5,1.4-3.4
		c0.9-0.9,2.1-1.4,3.6-1.4C377.3,201.6,379,202.4,380.7,204z"/>
	<path class="st0" d="M393.9,204l-1.5,1.6c-1.2-1.2-2.5-1.8-3.7-1.8c-0.8,0-1.4,0.3-1.9,0.8c-0.5,0.5-0.8,1.1-0.8,1.8
		c0,0.6,0.2,1.2,0.7,1.7c0.4,0.5,1.4,1.2,2.8,1.9c1.7,0.9,2.9,1.8,3.5,2.6c0.6,0.8,0.9,1.8,0.9,2.9c0,1.5-0.5,2.8-1.6,3.8
		c-1,1-2.4,1.6-3.9,1.6c-1,0-2-0.2-3-0.7s-1.7-1.1-2.4-1.9l1.5-1.7c1.2,1.3,2.5,2,3.8,2c0.9,0,1.7-0.3,2.4-0.9c0.7-0.6,1-1.3,1-2.1
		c0-0.7-0.2-1.3-0.7-1.8c-0.4-0.5-1.4-1.2-2.9-1.9c-1.6-0.8-2.8-1.7-3.3-2.5s-0.9-1.8-0.9-2.8c0-1.4,0.5-2.5,1.4-3.4
		c0.9-0.9,2.1-1.4,3.6-1.4C390.5,201.6,392.2,202.4,393.9,204z"/>
	<path class="st0" d="M398.9,194.6c0.5,0,1,0.2,1.4,0.6c0.4,0.4,0.6,0.8,0.6,1.4c0,0.5-0.2,1-0.6,1.4c-0.4,0.4-0.8,0.6-1.4,0.6
		c-0.5,0-1-0.2-1.3-0.6c-0.4-0.4-0.6-0.8-0.6-1.4c0-0.5,0.2-1,0.6-1.4C397.9,194.7,398.3,194.6,398.9,194.6z M397.7,202h2.3v18.1
		h-2.3V202z"/>
	<path class="st0" d="M414,204l-1.5,1.6c-1.2-1.2-2.5-1.8-3.7-1.8c-0.8,0-1.4,0.3-1.9,0.8c-0.5,0.5-0.8,1.1-0.8,1.8
		c0,0.6,0.2,1.2,0.7,1.7c0.4,0.5,1.4,1.2,2.8,1.9c1.7,0.9,2.9,1.8,3.5,2.6c0.6,0.8,0.9,1.8,0.9,2.9c0,1.5-0.5,2.8-1.6,3.8
		c-1,1-2.4,1.6-3.9,1.6c-1,0-2-0.2-3-0.7c-1-0.5-1.7-1.1-2.4-1.9l1.5-1.7c1.2,1.3,2.5,2,3.8,2c0.9,0,1.7-0.3,2.4-0.9
		c0.7-0.6,1-1.3,1-2.1c0-0.7-0.2-1.3-0.7-1.8c-0.4-0.5-1.4-1.2-2.9-1.9c-1.6-0.8-2.8-1.7-3.3-2.5c-0.6-0.8-0.9-1.8-0.9-2.8
		c0-1.4,0.5-2.5,1.4-3.4c0.9-0.9,2.1-1.4,3.6-1.4C410.6,201.6,412.3,202.4,414,204z"/>
	<path class="st0" d="M420.2,195.3h2.3v6.7h3.7v2h-3.7v16.1h-2.3V204H417v-2h3.2V195.3z"/>
	<path class="st0" d="M447.8,202v18.1h-2.3V217c-1,1.2-2.1,2.1-3.3,2.7c-1.2,0.6-2.5,0.9-4,0.9c-2.6,0-4.8-0.9-6.6-2.8
		c-1.8-1.9-2.7-4.1-2.7-6.8c0-2.6,0.9-4.8,2.8-6.7s4-2.8,6.6-2.8c1.5,0,2.8,0.3,4,1c1.2,0.6,2.3,1.6,3.2,2.9V202H447.8z
		 M438.5,203.8c-1.3,0-2.5,0.3-3.6,1c-1.1,0.6-2,1.5-2.6,2.7c-0.6,1.2-1,2.4-1,3.7c0,1.3,0.3,2.5,1,3.7c0.7,1.2,1.5,2.1,2.6,2.7
		c1.1,0.6,2.3,1,3.6,1c1.3,0,2.5-0.3,3.6-1s2-1.5,2.6-2.6s0.9-2.3,0.9-3.7c0-2.1-0.7-3.9-2.1-5.3
		C442.2,204.5,440.5,203.8,438.5,203.8z"/>
	<path class="st0" d="M453,202h2.3v3.3c0.9-1.2,2-2.2,3.1-2.8c1.1-0.6,2.4-0.9,3.7-0.9c1.4,0,2.6,0.3,3.6,1c1.1,0.7,1.8,1.6,2.3,2.8
		s0.8,3,0.8,5.5v9.3h-2.3v-8.7c0-2.1-0.1-3.5-0.3-4.2c-0.3-1.2-0.8-2.1-1.6-2.7c-0.8-0.6-1.8-0.9-3-0.9c-1.4,0-2.7,0.5-3.8,1.4
		s-1.9,2.1-2.2,3.5c-0.2,0.9-0.3,2.5-0.3,4.9v6.7H453V202z"/>
	<path class="st0" d="M475.9,195.3h2.3v6.7h3.7v2h-3.7v16.1h-2.3V204h-3.2v-2h3.2V195.3z"/>
	<path class="st0" d="M502.4,195v2.3c-0.9-0.4-1.6-0.6-2.2-0.6c-0.5,0-0.8,0.1-1.1,0.3c-0.3,0.2-0.5,0.4-0.6,0.6
		c-0.1,0.2-0.1,0.9-0.1,1.9l0,2.5h3.8v2h-3.8l0,16.1H496V204h-2.4v-2h2.4v-2.8c0-1.3,0.1-2.2,0.4-2.8c0.2-0.6,0.6-1,1.2-1.3
		c0.6-0.3,1.3-0.5,2.1-0.5C500.4,194.6,501.3,194.7,502.4,195z"/>
	<path class="st0" d="M514.2,201.6c2.8,0,5.1,1,6.9,3c1.7,1.8,2.5,4,2.5,6.6c0,2.5-0.9,4.7-2.6,6.6c-1.8,1.9-4,2.8-6.8,2.8
		c-2.8,0-5.1-0.9-6.8-2.8c-1.8-1.9-2.6-4.1-2.6-6.6c0-2.5,0.8-4.7,2.5-6.5C509.1,202.6,511.4,201.6,514.2,201.6z M514.2,203.8
		c-1.9,0-3.6,0.7-5,2.2c-1.4,1.4-2.1,3.2-2.1,5.2c0,1.3,0.3,2.5,1,3.7s1.5,2,2.6,2.6c1.1,0.6,2.3,0.9,3.6,0.9s2.5-0.3,3.6-0.9
		c1.1-0.6,1.9-1.5,2.6-2.6s1-2.4,1-3.7c0-2-0.7-3.8-2.1-5.2C517.8,204.6,516.1,203.8,514.2,203.8z"/>
	<path class="st0" d="M527.1,202h2.4v2.7c0.7-1,1.5-1.8,2.3-2.3c0.8-0.5,1.6-0.8,2.5-0.8c0.6,0,1.3,0.2,2.1,0.6l-1.2,2
		c-0.5-0.2-0.9-0.3-1.2-0.3c-0.8,0-1.5,0.3-2.3,1s-1.3,1.6-1.7,3c-0.3,1-0.4,3.1-0.4,6.3v6.1h-2.4V202z"/>
	<path class="st0" d="M565.8,202v18.1h-2.3V217c-1,1.2-2.1,2.1-3.3,2.7c-1.2,0.6-2.5,0.9-4,0.9c-2.6,0-4.8-0.9-6.6-2.8
		c-1.8-1.9-2.7-4.1-2.7-6.8c0-2.6,0.9-4.8,2.8-6.7s4-2.8,6.6-2.8c1.5,0,2.8,0.3,4,1c1.2,0.6,2.3,1.6,3.2,2.9V202H565.8z
		 M556.4,203.8c-1.3,0-2.5,0.3-3.6,1c-1.1,0.6-2,1.5-2.6,2.7c-0.6,1.2-1,2.4-1,3.7c0,1.3,0.3,2.5,1,3.7c0.7,1.2,1.5,2.1,2.6,2.7
		c1.1,0.6,2.3,1,3.6,1c1.3,0,2.5-0.3,3.6-1s2-1.5,2.6-2.6s0.9-2.3,0.9-3.7c0-2.1-0.7-3.9-2.1-5.3
		C560.2,204.5,558.5,203.8,556.4,203.8z"/>
	<path class="st0" d="M589.6,204l-1.5,1.6c-1.2-1.2-2.5-1.8-3.7-1.8c-0.8,0-1.4,0.3-1.9,0.8c-0.5,0.5-0.8,1.1-0.8,1.8
		c0,0.6,0.2,1.2,0.7,1.7c0.4,0.5,1.4,1.2,2.8,1.9c1.7,0.9,2.9,1.8,3.5,2.6c0.6,0.8,0.9,1.8,0.9,2.9c0,1.5-0.5,2.8-1.6,3.8
		c-1,1-2.4,1.6-3.9,1.6c-1,0-2-0.2-3-0.7c-1-0.5-1.7-1.1-2.4-1.9l1.5-1.7c1.2,1.3,2.5,2,3.8,2c0.9,0,1.7-0.3,2.4-0.9
		c0.7-0.6,1-1.3,1-2.1c0-0.7-0.2-1.3-0.7-1.8c-0.4-0.5-1.4-1.2-2.9-1.9c-1.6-0.8-2.8-1.7-3.3-2.5c-0.6-0.8-0.9-1.8-0.9-2.8
		c0-1.4,0.5-2.5,1.4-3.4c0.9-0.9,2.1-1.4,3.6-1.4C586.2,201.6,587.9,202.4,589.6,204z"/>
	<path class="st0" d="M611.3,205.8l-1.9,1.2c-1.6-2.1-3.8-3.2-6.5-3.2c-2.2,0-4,0.7-5.5,2.1c-1.5,1.4-2.2,3.1-2.2,5.2
		c0,1.3,0.3,2.6,1,3.7c0.7,1.2,1.6,2.1,2.8,2.7c1.2,0.6,2.5,1,3.9,1c2.7,0,4.8-1.1,6.5-3.2l1.9,1.2c-0.9,1.3-2,2.3-3.5,3
		c-1.5,0.7-3.1,1.1-5,1.1c-2.9,0-5.2-0.9-7.1-2.7c-1.9-1.8-2.8-4-2.8-6.7c0-1.8,0.4-3.4,1.3-4.9s2.1-2.7,3.6-3.5
		c1.5-0.8,3.3-1.3,5.2-1.3c1.2,0,2.4,0.2,3.5,0.6c1.1,0.4,2.1,0.8,2.8,1.4C610.1,204.1,610.8,204.9,611.3,205.8z"/>
	<path class="st0" d="M615.5,195h2.3v25.1h-2.3V195z"/>
	<path class="st0" d="M637.9,214.1l2,1c-0.6,1.3-1.4,2.3-2.2,3.1c-0.8,0.8-1.8,1.4-2.9,1.8c-1.1,0.4-2.3,0.6-3.6,0.6
		c-3,0-5.3-1-6.9-2.9c-1.7-1.9-2.5-4.1-2.5-6.6c0-2.3,0.7-4.4,2.1-6.2c1.8-2.3,4.2-3.4,7.2-3.4c3.1,0,5.6,1.2,7.4,3.5
		c1.3,1.7,2,3.7,2,6.2h-16.3c0,2.1,0.7,3.8,2,5.2c1.3,1.3,2.9,2,4.8,2c0.9,0,1.8-0.2,2.7-0.5c0.9-0.3,1.6-0.7,2.2-1.3
		C636.6,216.2,637.2,215.3,637.9,214.1z M637.9,209.3c-0.3-1.2-0.8-2.2-1.4-3c-0.6-0.7-1.4-1.3-2.4-1.8c-1-0.5-2-0.7-3.1-0.7
		c-1.8,0-3.3,0.6-4.6,1.7c-0.9,0.8-1.6,2.1-2.1,3.8H637.9z"/>
	<path class="st0" d="M644,202h2.4v2.7c0.7-1,1.5-1.8,2.3-2.3c0.8-0.5,1.6-0.8,2.5-0.8c0.6,0,1.3,0.2,2.1,0.6l-1.2,2
		c-0.5-0.2-0.9-0.3-1.2-0.3c-0.8,0-1.5,0.3-2.3,1s-1.3,1.6-1.7,3c-0.3,1-0.4,3.1-0.4,6.3v6.1H644V202z"/>
	<path class="st0" d="M663.7,201.6c2.8,0,5.1,1,6.9,3c1.7,1.8,2.5,4,2.5,6.6c0,2.5-0.9,4.7-2.6,6.6c-1.8,1.9-4,2.8-6.8,2.8
		c-2.8,0-5.1-0.9-6.8-2.8c-1.8-1.9-2.6-4.1-2.6-6.6c0-2.5,0.8-4.7,2.5-6.5C658.6,202.6,660.9,201.6,663.7,201.6z M663.7,203.8
		c-1.9,0-3.6,0.7-5,2.2c-1.4,1.4-2.1,3.2-2.1,5.2c0,1.3,0.3,2.5,1,3.7s1.5,2,2.6,2.6c1.1,0.6,2.3,0.9,3.6,0.9s2.5-0.3,3.6-0.9
		c1.1-0.6,1.9-1.5,2.6-2.6s1-2.4,1-3.7c0-2-0.7-3.8-2.1-5.2C667.3,204.6,665.6,203.8,663.7,203.8z"/>
	<path class="st0" d="M679.5,195.3h2.3v6.7h3.7v2h-3.7v16.1h-2.3V204h-3.2v-2h3.2V195.3z"/>
	<path class="st0" d="M689.9,194.6c0.5,0,1,0.2,1.4,0.6c0.4,0.4,0.6,0.8,0.6,1.4c0,0.5-0.2,1-0.6,1.4c-0.4,0.4-0.8,0.6-1.4,0.6
		c-0.5,0-1-0.2-1.3-0.6c-0.4-0.4-0.6-0.8-0.6-1.4c0-0.5,0.2-1,0.6-1.4C688.9,194.7,689.3,194.6,689.9,194.6z M688.7,202h2.3v18.1
		h-2.3V202z"/>
	<path class="st0" d="M713.5,205.8l-1.9,1.2c-1.6-2.1-3.8-3.2-6.5-3.2c-2.2,0-4,0.7-5.5,2.1c-1.5,1.4-2.2,3.1-2.2,5.2
		c0,1.3,0.3,2.6,1,3.7c0.7,1.2,1.6,2.1,2.8,2.7c1.2,0.6,2.5,1,3.9,1c2.7,0,4.8-1.1,6.5-3.2l1.9,1.2c-0.9,1.3-2,2.3-3.5,3
		c-1.5,0.7-3.1,1.1-5,1.1c-2.9,0-5.2-0.9-7.1-2.7c-1.9-1.8-2.8-4-2.8-6.7c0-1.8,0.4-3.4,1.3-4.9s2.1-2.7,3.6-3.5
		c1.5-0.8,3.3-1.3,5.2-1.3c1.2,0,2.4,0.2,3.5,0.6c1.1,0.4,2.1,0.8,2.8,1.4C712.3,204.1,713,204.9,713.5,205.8z"/>
	<path class="st0" d="M745.1,205.8l-1.9,1.2c-1.6-2.1-3.8-3.2-6.5-3.2c-2.2,0-4,0.7-5.5,2.1c-1.5,1.4-2.2,3.1-2.2,5.2
		c0,1.3,0.3,2.6,1,3.7c0.7,1.2,1.6,2.1,2.8,2.7c1.2,0.6,2.5,1,3.9,1c2.7,0,4.8-1.1,6.5-3.2l1.9,1.2c-0.9,1.3-2,2.3-3.5,3
		c-1.5,0.7-3.1,1.1-5,1.1c-2.9,0-5.2-0.9-7.1-2.7c-1.9-1.8-2.8-4-2.8-6.7c0-1.8,0.4-3.4,1.3-4.9s2.1-2.7,3.6-3.5
		c1.5-0.8,3.3-1.3,5.2-1.3c1.2,0,2.4,0.2,3.5,0.6c1.1,0.4,2.1,0.8,2.8,1.4C743.8,204.1,744.5,204.9,745.1,205.8z"/>
	<path class="st0" d="M758.1,201.6c2.8,0,5.1,1,6.9,3c1.7,1.8,2.5,4,2.5,6.6c0,2.5-0.9,4.7-2.6,6.6c-1.8,1.9-4,2.8-6.8,2.8
		c-2.8,0-5.1-0.9-6.8-2.8c-1.8-1.9-2.6-4.1-2.6-6.6c0-2.5,0.8-4.7,2.5-6.5C753,202.6,755.3,201.6,758.1,201.6z M758.1,203.8
		c-1.9,0-3.6,0.7-5,2.2c-1.4,1.4-2.1,3.2-2.1,5.2c0,1.3,0.3,2.5,1,3.7s1.5,2,2.6,2.6c1.1,0.6,2.3,0.9,3.6,0.9s2.5-0.3,3.6-0.9
		c1.1-0.6,1.9-1.5,2.6-2.6s1-2.4,1-3.7c0-2-0.7-3.8-2.1-5.2C761.7,204.6,760,203.8,758.1,203.8z"/>
	<path class="st0" d="M780.5,201.6c2.8,0,5.1,1,6.9,3c1.7,1.8,2.5,4,2.5,6.6c0,2.5-0.9,4.7-2.6,6.6c-1.8,1.9-4,2.8-6.8,2.8
		c-2.8,0-5.1-0.9-6.8-2.8c-1.8-1.9-2.6-4.1-2.6-6.6c0-2.5,0.8-4.7,2.5-6.5C775.4,202.6,777.7,201.6,780.5,201.6z M780.5,203.8
		c-1.9,0-3.6,0.7-5,2.2c-1.4,1.4-2.1,3.2-2.1,5.2c0,1.3,0.3,2.5,1,3.7s1.5,2,2.6,2.6c1.1,0.6,2.3,0.9,3.6,0.9s2.5-0.3,3.6-0.9
		c1.1-0.6,1.9-1.5,2.6-2.6s1-2.4,1-3.7c0-2-0.7-3.8-2.1-5.2C784.1,204.6,782.4,203.8,780.5,203.8z"/>
	<path class="st0" d="M794.2,195h2.3v14.3l8.4-7.3h3.4l-10,8.7l10.6,9.5h-3.3l-9.1-8.2v8.2h-2.3V195z"/>
</g>
</svg>
